HIERARCHY
ROOT Hips
{
  OFFSET 265.287 66.7526 -254.649
  CHANNELS 6 Xposition Yposition Zposition Zrotation Xrotation Yrotation
  JOINT LeftUpLeg
  {
    OFFSET 8.64259 1.95398 -2.38835
    CHANNELS 3 Zrotation Xrotation Yrotation
    JOINT LeftLeg
    {
      OFFSET 43.7702 0 0
      CHANNELS 3 Zrotation Xrotation Yrotation
      JOINT LeftFoot
      {
        OFFSET 40.6238 0 0
        CHANNELS 3 Zrotation Xrotation Yrotation
        JOINT LeftToeBase
        {
          OFFSET 12.7242 0 0
          CHANNELS 3 Zrotation Xrotation Yrotation
          End Site
          {
            OFFSET 0 0 0
          }
        }
      }
    }
  }
  JOINT RightUpLeg
  {
    OFFSET -8.2249 1.95398 -2.59336
    CHANNELS 3 Zrotation Xrotation Yrotation
    JOINT RightLeg
    {
      OFFSET 43.5653 0 0
      CHANNELS 3 Zrotation Xrotation Yrotation
      JOINT RightFoot
      {
        OFFSET 40.6238 0 0
        CHANNELS 3 Zrotation Xrotation Yrotation
        JOINT RightToeBase
        {
          OFFSET 12.7242 0 0
          CHANNELS 3 Zrotation Xrotation Yrotation
          End Site
          {
            OFFSET 0 0 0
          }
        }
      }
    }
  }
  JOINT Spine
  {
    OFFSET 0.165834 0.87714 6.61349
    CHANNELS 3 Zrotation Xrotation Yrotation
    JOINT Spine1
    {
      OFFSET 7.38963 1.71661e-005 0
      CHANNELS 3 Zrotation Xrotation Yrotation
      JOINT Spine2
      {
        OFFSET 11.9445 1.14441e-005 0
        CHANNELS 3 Zrotation Xrotation Yrotation
        JOINT Spine3
        {
          OFFSET 14.7254 4.19617e-005 0
          CHANNELS 3 Zrotation Xrotation Yrotation
          JOINT Spine4
          {
            OFFSET 10.9679 0 0
            CHANNELS 3 Zrotation Xrotation Yrotation
            JOINT RightShoulder
            {
              OFFSET 2.46616 -1.6653 3.69651
              CHANNELS 3 Zrotation Xrotation Yrotation
              JOINT RightArm
              {
                OFFSET 13.0012 0 0
                CHANNELS 3 Zrotation Xrotation Yrotation
                JOINT RightForeArm
                {
                  OFFSET 28.7848 1.52588e-005 0
                  CHANNELS 3 Zrotation Xrotation Yrotation
                  JOINT RightHand
                  {
                    OFFSET 26.5688 1.52588e-005 0
                    CHANNELS 3 Zrotation Xrotation Yrotation
                    End Site
                    {
                      OFFSET 0 0 0
                    }
                  }
                }
              }
            }
            JOINT LeftShoulder
            {
              OFFSET 2.38034 -1.29275 -3.7523
              CHANNELS 3 Zrotation Xrotation Yrotation
              JOINT LeftArm
              {
                OFFSET 16.3182 6.10351e-005 0
                CHANNELS 3 Zrotation Xrotation Yrotation
                JOINT LeftForeArm
                {
                  OFFSET 27.0901 0 0
                  CHANNELS 3 Zrotation Xrotation Yrotation
                  JOINT LeftHand
                  {
                    OFFSET 24.5451 1.52588e-005 0
                    CHANNELS 3 Zrotation Xrotation Yrotation
                    End Site
                    {
                      OFFSET 0 0 0
                    }
                  }
                }
              }
            }
            JOINT Neck
            {
              OFFSET 5.0226 -0.0266342 0
              CHANNELS 3 Zrotation Xrotation Yrotation
              JOINT Head
              {
                OFFSET 6.69364 2.86102e-005 0
                CHANNELS 3 Zrotation Xrotation Yrotation
                End Site
                {
                  OFFSET 0 0 0
                }
              }
            }
          }
        }
      }
    }
  }
}
MOTION
Frames:	13
Frame Time:	0.0416667
-124.039 97.4857 -21.1895 82.1994 -85.7924 71.1065 -173.027 11.5207 96.4251 -9.79541 22.1382 5.29278 40.9459 -4.9548 -5.64428 44.5124 -4.62173 6.44774 171.113 12.5994 71.9857 -21.7318 -5.42136 -3.7757 56.8291 3.90354 15.2744 43.3393 -2.10803 -0.502259 -0.0296431 7.50555 -90.5027 11.8605 -0.295439 -0.970727 0.189206 -0.337879 -0.956804 -22.343 0.0099419 -1.01465 -2.33039 0.00994752 -1.01464 101.061 -48.1401 -83.9267 21.3587 -1.98856 -3.84545 -0.0539868 -10.2138 -16.1281 -16.4426 -1.04869 2.24866 -84.2062 -52.1918 87.4617 -25.4882 9.80105 -15.8636 2.09971 21.7502 -2.92119 1.81306 -0.138316 -5.67761 11.7379 3.60368 7.214 -14.3489 1.72185 0.61983 
-121.623 96.9796 -20.9013 81.0195 -85.4911 69.4955 -172.852 11.8266 97.9137 -10.2795 22.0454 6.09331 38.887 -5.37673 -6.66383 43.0456 -4.24267 7.25396 170.779 13.9238 70.1168 -23.3847 -5.57567 -4.17998 56.4797 3.78625 15.8194 45.5891 -2.42893 -0.153794 -0.0407903 7.51576 -90.4447 11.8404 -0.290297 -0.855853 0.169204 -0.327688 -0.842258 -22.3637 -0.0196736 -0.903528 -2.35104 -0.0196721 -0.903527 101.039 -48.1704 -83.9623 20.5841 -1.71782 -3.89204 -0.0202872 -10.0216 -15.5342 -15.6305 -0.972155 2.07062 -84.3256 -52.5458 87.3244 -24.6748 9.16931 -15.8313 2.3082 21.0764 -3.01352 1.62103 -0.147397 -5.99114 11.7621 3.15784 2.23352 -13.1531 1.90757 7.48333 
-118.96 96.1929 -20.5246 77.3385 -86.034 66.1116 -172.16 11.8097 99.9811 -10.6235 23.0922 6.82949 37.8194 -5.58898 -7.2765 41.9665 -3.98102 7.23267 170.482 15.609 68.5742 -25.5012 -6.49347 -4.21672 56.1865 3.51445 16.5267 47.7415 -2.73126 0.0403516 0.0106507 7.52404 -90.4355 11.8243 -0.183568 -0.848754 0.153051 -0.22074 -0.839861 -22.3799 0.0799945 -0.864687 -2.36723 0.0799958 -0.864692 100.876 -47.6365 -84.2352 20.1872 -2.26599 -3.73227 0.39461 -9.569 -15.4333 -15.932 -1.02599 2.33162 -84.2928 -52.2574 87.3411 -24.6326 8.75944 -15.3481 2.60609 20.4863 -3.3114 2.71699 -0.124026 -5.18891 12.695 3.46886 4.0717 -13.7379 1.91191 5.0973 
-116.012 95.0493 -20.1203 79.7355 -86.4957 69.3655 -171.556 12.2548 102.332 -12.1053 23.5688 7.7209 37.9031 -5.55482 -6.89104 41.6938 -3.92602 6.60951 169.91 17.0692 67.2094 -27.9911 -8.19782 -3.94212 56.0708 3.03994 16.3115 50.9586 -3.21406 -0.195389 -0.018259 7.62579 -90.4161 11.6208 -0.231266 -0.805119 -0.0504062 -0.266468 -0.794164 -22.5836 0.0213965 -0.837388 -2.57091 0.0213881 -0.837398 101.081 -47.9627 -83.8996 19.6314 -1.76017 -5.58834 0.427744 -10.1279 -13.8285 -15.1267 -0.868462 1.50248 -83.8633 -51.9771 87.9456 -24.0043 8.38002 -15.3116 2.83214 20.171 -3.63625 3.09632 -0.125685 -5.10703 14.2145 3.39101 1.46212 -14.4156 2.17318 7.8302 
-112.742 93.4373 -19.7447 75.8324 -86.1539 66.8638 -171.322 13.9671 104.796 -13.9588 23.2084 8.50254 36.4948 -5.80458 -6.94065 43.4232 -4.32469 7.58559 169.859 19.4241 66.0635 -31.6722 -8.37596 -3.90724 55.4589 3.24127 17.8015 54.409 -3.75607 -0.513636 -0.0595268 7.58078 -90.4237 11.7105 -0.317227 -0.811335 0.0393121 -0.35263 -0.796593 -22.4938 -0.0587343 -0.869177 -2.48118 -0.0587304 -0.86916 101.264 -47.8944 -83.6079 19.616 -2.15372 -4.92766 0.145099 -9.85459 -15.7457 -15.2889 -0.892193 1.6202 -83.7429 -51.8223 88.1079 -23.0602 8.13233 -14.756 3.32292 21.1816 -4.74797 2.51606 -0.130979 -5.31749 14.2998 3.76237 2.67718 -14.5173 2.46295 5.15703 
-109.02 91.5226 -19.4969 89.6672 -85.0661 81.9406 -172.81 14.8867 106.521 -17.6119 24.0782 9.96001 36.7604 -5.44887 -6.36052 45.5365 -4.73804 9.72317 169.264 20.2165 64.3799 -34.8537 -10.343 -3.99489 54.6586 3.36191 16.6472 59.1077 -4.47396 -0.583239 -0.174791 7.73702 -90.3617 11.398 -0.516545 -0.668596 -0.273001 -0.545463 -0.645217 -22.8071 -0.291734 -0.792919 -2.79449 -0.291727 -0.792918 101.451 -48.477 -83.3003 19.3268 -2.34809 -4.5777 0.324935 -7.50105 -17.2975 -15.8202 -0.754143 0.348269 -83.677 -51.3146 88.1545 -21.8767 7.98419 -15.4288 3.92273 21.9485 -6.05851 1.9667 -0.125687 -5.29498 14.104 2.90504 -1.00509 -13.0396 2.32902 9.10098 
-104.654 89.3415 -19.2247 94.3208 -83.3254 89.3418 -175.381 16.055 109.176 -21.8446 25.7401 10.8256 37.8631 -3.95148 -9.33556 56.7937 -6.40607 14.2966 169.236 19.2082 63.9898 -36.049 -10.2294 -4.3958 54.1326 3.80007 17.5056 62.1985 -5.23868 -2.12023 -0.266825 7.77273 -90.3717 11.3261 -0.704145 -0.669794 -0.344759 -0.732942 -0.63816 -22.8793 -0.470305 -0.850441 -2.86669 -0.4703 -0.850442 102.164 -49.6512 -82.1684 18.8861 -2.42428 -3.79124 0.608192 -5.94673 -18.1237 -16.1034 -0.781022 0.450041 -83.8751 -49.1956 87.628 -22.4301 8.19208 -15.348 4.93066 23.3444 -7.63108 2.88576 -0.135274 -5.35848 13.8147 2.18954 -3.26833 -12.9727 2.20247 9.30525 
-99.39 87.5323 -18.8302 93.4296 -80.929 91.0481 -178.791 18.2921 109.634 -29.4097 21.5735 12.1379 47.2526 -1.17592 -10.2712 63.6794 -7.35819 16.3008 169.075 16.019 63.2268 -32.9309 -10.6475 -5.23888 50.6997 5.283 20.3112 65.1335 -6.19679 -4.31774 -0.455429 7.74762 -90.3515 11.3759 -1.07017 -0.592424 -0.294716 -1.09521 -0.544748 -22.8312 -0.842658 -0.886672 -2.81853 -0.842655 -0.886667 103.129 -51.0432 -80.6837 18.6154 -0.987966 -1.9784 0.16089 -4.10309 -20.1726 -16.3208 -0.895438 1.19734 -84.098 -47.214 87.0607 -23.7529 8.65789 -15.1874 6.48227 25.7133 -9.75257 3.48687 -0.128543 -5.09882 13.0994 1.20354 -6.28697 -12.9087 1.92806 10.1549 
-93.2477 86.9904 -18.6503 90.8956 -78.1117 90.0937 -179.52 22.2371 107.363 -38.4496 21.4785 11.7783 58.7254 2.2352 0.831099 60.1834 -7.68773 11.0921 166.234 11.4172 60.7921 -22.8338 -8.72166 -4.50831 41.9202 7.14266 26.7752 64.1385 -6.27524 -5.62752 -0.630088 7.77129 -90.2781 11.3292 -1.38342 -0.415629 -0.341057 -1.40037 -0.354338 -22.8804 -1.19454 -0.812229 -2.8677 -1.19454 -0.812231 104.41 -52.3631 -78.7687 18.9874 2.43485 -0.387515 -1.21667 -3.56082 -21.6813 -16.2033 -0.860179 0.989548 -85.3807 -46.0222 84.8836 -24.1202 10.4313 -17.0283 5.18887 24.8788 -8.6911 5.11928 -0.0941199 -4.42456 12.7649 -0.226243 -9.84485 -12.504 1.302 11.946 
-87.358 88.1762 -18.6936 85.9897 -75.8243 87.1627 -179.68 25.4414 106.325 -43.2506 25.2725 10.7009 62.6837 3.96199 3.8419 56.648 -7.22469 9.20097 164.422 5.886 61.0042 -10.2193 -5.96531 -5.3085 32.5739 9.00077 29.9688 49.8344 -3.7028 -8.21911 -0.659296 7.76864 -90.3464 11.3333 -1.47338 -0.542702 -0.33688 -1.49584 -0.477327 -22.8762 -1.24216 -0.96047 -2.86352 -1.24216 -0.960467 104.772 -52.4143 -78.2233 20.4971 5.21716 1.06315 -2.35057 -3.78287 -21.2896 -16.101 -0.876676 1.15291 -85.8724 -46.6494 84.2023 -22.5179 12.5633 -21.0063 3.17082 26.7661 -6.66095 5.54951 -0.174743 -5.5925 11.8577 -0.837182 -8.73596 -11.2963 0.609438 10.0902 
-82.8785 90.1069 -19.0231 81.4109 -76.4769 83.9475 -178.295 26.1775 105.056 -42.8541 26.0846 8.90884 61.7189 3.77544 5.60803 54.5097 -7.03567 6.94695 167.46 7.91934 63.6729 -14.3562 -6.95318 -6.05495 39.3523 8.62366 26.2557 40.5263 -1.61988 -5.88522 -0.353566 7.79202 -90.2523 11.2889 -0.821059 -0.420023 -0.381869 -0.83875 -0.383489 -22.9179 -0.656874 -0.647369 -2.90521 -0.656875 -0.647377 104.205 -52.3976 -79.0809 22.5053 5.38454 1.30355 -2.77074 -6.40299 -17.4402 -14.8461 -0.832636 1.3511 -85.7731 -46.6839 84.3636 -20.2573 13.9631 -23.5013 3.45085 27.2258 -8.64309 4.72673 -0.139034 -5.1285 10.0511 -1.0894 -6.70751 -9.45005 0.100298 6.7047 
-79.2162 92.0326 -19.345 79.6154 -77.4575 83.5516 -178.314 24.3079 103.614 -40.4415 25.6994 8.85869 60.0122 3.18777 7.89982 54.0802 -7.00336 6.36493 168.675 10.0928 67.6361 -19.2864 -3.24056 -4.09849 47.6704 6.48282 26.8473 41.3042 -1.7996 -4.84083 -0.157953 7.90664 -90.1754 11.0599 -0.395661 -0.310968 -0.611013 -0.408969 -0.29326 -23.1462 -0.283918 -0.415501 -3.13351 -0.283916 -0.415513 103.769 -52.3725 -79.7396 23.5016 3.80965 -0.795449 -2.2165 -10.6349 -12.8558 -13.211 -0.72468 1.22291 -85.8087 -46.7507 84.3179 -18.6152 13.6253 -23.0912 5.29822 24.7077 -12.5293 4.00847 -0.159697 -5.62294 9.34038 -0.953265 -4.48221 -9.18663 -0.125443 3.61951 
-76.2645 93.6295 -19.6808 79.6079 -77.4129 84.6682 -177.664 21.9826 102.196 -36.4364 24.6935 8.67512 60.5086 3.35089 9.49421 50.389 -6.25098 4.47062 169.615 11.768 72.7877 -25.5443 0.115027 -2.11497 52.1208 5.20246 24.3345 44.1265 -2.25449 -1.83518 -0.163111 7.97625 -90.1571 10.9208 -0.397386 -0.274998 -0.750059 -0.4091 -0.257244 -23.2853 -0.296365 -0.381707 -3.27264 -0.296373 -0.381718 103.503 -51.9935 -80.1332 24.3892 2.70062 -1.96378 -1.65053 -10.9 -11.7632 -12.7979 -0.692278 1.13546 -86.0827 -46.1613 83.7953 -18.8103 13.1625 -21.5164 5.29346 19.277 -13.7003 9.31049 -0.259269 -6.01911 8.12387 -0.89214 -3.93413 -8.82206 -0.222648 3.68253 
